<svg width="85" height="85" viewBox="0 0 85 85" fill="none" xmlns="http://www.w3.org/2000/svg">
<path fill-rule="evenodd" clip-rule="evenodd" d="M27.2013 16.0058C26.9757 16.6031 26.8882 23.3939 27.0073 31.0962L27.2242 45.1002H29.1958H31.1674V30.2663C31.1674 15.4846 31.1611 15.4317 29.3898 15.1759C28.4119 15.0348 27.4268 15.4084 27.2013 16.0058ZM40.6202 16.8357C40.3805 17.8283 40.2851 26.1778 40.4081 35.3917C40.61 50.5471 40.7669 52.2277 42.058 53.0319C43.1991 53.7432 43.711 53.6101 44.6211 52.364C45.5249 51.126 45.7575 47.4063 45.7575 34.1881C45.7575 25.0472 45.5422 16.9976 45.2788 16.3001C44.5272 14.3083 41.136 14.698 40.6202 16.8357ZM54.1228 16.3001C53.8594 16.9976 53.6441 23.4484 53.6441 30.6344C53.6441 41.2218 53.8665 43.8887 54.8168 44.6905C55.4619 45.2349 56.5266 45.4715 57.1828 45.2149C58.1883 44.8228 58.376 42.4149 58.376 29.8903V15.0316H56.4888C55.4509 15.0316 54.3862 15.6025 54.1228 16.3001ZM35.7022 31.2959C33.1619 32.8057 33.1391 32.8739 33.1391 38.9999C33.1391 45.7248 32.4679 47.1048 29.1958 47.1048C26.2888 47.1048 25.2525 45.6928 25.2525 41.7325C25.2525 39.732 24.8834 38.2847 24.3732 38.2847C23.8897 38.2847 21.7674 39.2404 19.6578 40.4079C15.97 42.4478 14.3746 44.6255 15.3683 46.2597C15.627 46.6854 21.855 50.5174 29.2092 54.7767C38.2819 60.0311 43.0225 62.3476 43.9555 61.9836C46.4453 61.0118 70.1641 47.0206 70.6357 46.2452C71.6822 44.5237 69.8935 42.3475 65.4518 39.9412L60.742 37.389V40.9195C60.742 44.9799 59.0369 47.1048 55.7782 47.1048C52.9106 47.1048 52.0676 45.0706 52.0621 38.1371C52.0573 32.4626 51.9792 32.226 49.6961 30.9054L47.3349 29.5391V41.0045C47.3349 51.0931 47.1614 52.6286 45.8924 53.7961C44.0091 55.5288 41.5895 55.4823 39.9877 53.6822C38.957 52.5244 38.662 50.0331 38.4854 41.0069L38.2653 29.7732L35.7022 31.2959ZM15.0118 51.2559C15.0189 52.7208 15.2847 54.3293 15.6033 54.8296C16.6357 56.4493 42.0438 71.2431 43.3703 70.997C44.0777 70.8663 50.4193 67.331 57.4628 63.1414C70.3912 55.4519 71.4977 54.4031 70.8628 50.4412C70.6278 48.9755 69.2334 49.5977 57.5874 56.37C50.4303 60.5315 43.8648 63.936 42.9973 63.9352C42.1297 63.9352 37.3387 61.565 32.3504 58.6688C27.3622 55.7734 21.4181 52.3207 19.1404 50.9969L15 48.5906L15.0118 51.2559Z" fill="#156082"/>
</svg>
