<svg width="58" height="67" viewBox="0 0 58 67" fill="none" xmlns="http://www.w3.org/2000/svg">
<path fill-rule="evenodd" clip-rule="evenodd" d="M20.988 3.34912C18.615 5.49412 17.741 7.37312 17.019 11.8881C16.011 18.1811 16.115 18.7461 19.593 25.9861C21.535 30.0281 21.838 31.8531 21.348 36.5481C20.909 40.7401 21.176 43.0381 22.366 45.3401C24.157 48.8031 25.93 49.6261 30.773 49.2411C36.201 48.8101 37.497 46.6151 37.521 37.8121C37.539 31.5001 38.037 29.0681 40.267 24.4201C42.754 19.2351 42.917 18.1971 42.137 12.4901C41.427 7.30412 40.745 5.76012 38.125 3.42012C35.478 1.05412 34.086 0.599121 29.5 0.599121C24.939 0.599121 23.527 1.05512 20.988 3.34912ZM10.717 39.0931C8.087 39.8171 5.205 41.0141 4.312 41.7541C1.69 43.9281 0 49.1381 0 55.0441C0 61.7911 1.363 62.9361 12.113 65.2181C22.156 67.3501 44.161 66.6691 52 63.9831L57.5 62.0991L57.786 53.5761C58.034 46.1581 57.808 44.7701 56.042 42.8751C54.008 40.6911 49.753 39.1181 42.75 37.9621L39 37.3431V41.3361C39 46.0071 36.258 50.0671 32.457 51.0201C30.203 51.5861 29.922 52.1161 30.192 55.2831C30.612 60.2191 34.771 63.4801 38.486 61.7871C41.886 60.2381 43.824 56.0451 42.19 53.7711C39.894 50.5781 39.735 49.4351 41.363 47.8071C42.879 46.2921 43.125 46.2951 44.685 47.8551C46.037 49.2071 46.151 49.9901 45.263 51.8191C44.654 53.0731 43.884 55.3481 43.552 56.8741C42.744 60.5951 39.573 63.5991 36.455 63.5991C32.734 63.5991 29 59.4251 29 55.2661C29 52.3921 28.51 51.6391 25.953 50.5791C22.444 49.1261 20 45.0491 20 40.6491C20 37.1271 18.675 36.9051 10.717 39.0931ZM41.336 49.1661C40.502 51.3381 42.618 53.3811 44.133 51.8661C45.413 50.5861 44.62 47.5991 43 47.5991C42.415 47.5991 41.667 48.3041 41.336 49.1661ZM15 51.0991C15 51.9241 15.675 52.5991 16.5 52.5991C17.325 52.5991 18 53.0491 18 53.5991C18 54.1491 17.325 54.5991 16.5 54.5991C15.675 54.5991 15 55.2741 15 56.0991C15 56.9241 14.55 57.5991 14 57.5991C13.45 57.5991 13 56.9241 13 56.0991C13 55.2741 12.325 54.5991 11.5 54.5991C10.675 54.5991 10 54.1491 10 53.5991C10 53.0491 10.675 52.5991 11.5 52.5991C12.325 52.5991 13 51.9241 13 51.0991C13 50.2741 13.45 49.5991 14 49.5991C14.55 49.5991 15 50.2741 15 51.0991Z" fill="white"/>
</svg>
