<svg width="68" height="49" viewBox="0 0 68 49" fill="none" xmlns="http://www.w3.org/2000/svg">
<path fill-rule="evenodd" clip-rule="evenodd" d="M22.25 1.26111C21.317 1.63811 20.944 7.00612 20.777 22.4321C20.562 42.3771 20.544 42.5471 20.252 27.3071L19.949 11.5161L12.224 11.8071L4.5 12.0991L4.224 27.3491C3.963 41.7721 3.841 42.5991 1.974 42.5991C0.447 42.5991 0 43.2791 0 45.5991V48.5991H34H68V45.5991C68 43.5991 67.5 42.5991 66.5 42.5991C65.239 42.5991 65 40.3861 65 28.6811C65 21.0261 64.727 14.0511 64.393 13.1811C63.911 11.9241 62.17 11.5991 55.918 11.5991H48.051L47.748 27.3491C47.457 42.5171 47.437 42.3371 47.223 22.4561C47.031 4.68912 46.78 1.72811 45.418 1.20611C43.543 0.486115 24.055 0.533114 22.25 1.26111ZM37.316 3.76211C42.328 6.43211 43.418 11.5261 39.927 15.9641C37 19.6861 31 19.6861 28.073 15.9641C24.641 11.6011 25.641 6.59411 30.5 3.80711C33.069 2.33311 34.614 2.32311 37.316 3.76211ZM32 7.09911C32 7.93211 31.111 8.59911 30 8.59911C28.637 8.59911 28 9.26611 28 10.6931C28 11.9451 28.803 12.9961 30 13.3091C31.1 13.5971 32 14.4551 32 15.2161C32 15.9761 32.9 16.5991 34 16.5991C35.1 16.5991 36 15.9761 36 15.2161C36 14.4551 36.9 13.5971 38 13.3091C39.197 12.9961 40 11.9451 40 10.6931C40 9.26611 39.363 8.59911 38 8.59911C36.889 8.59911 36 7.93211 36 7.09911C36 6.26611 35.111 5.59911 34 5.59911C32.889 5.59911 32 6.26611 32 7.09911ZM11 19.5991C11 20.1491 10.325 20.5991 9.5 20.5991C8.675 20.5991 8 20.1491 8 19.5991C8 19.0491 8.675 18.5991 9.5 18.5991C10.325 18.5991 11 19.0491 11 19.5991ZM16 19.5991C16 20.1491 15.55 20.5991 15 20.5991C14.45 20.5991 14 20.1491 14 19.5991C14 19.0491 14.45 18.5991 15 18.5991C15.55 18.5991 16 19.0491 16 19.5991ZM56 19.5991C56 20.1491 55.325 20.5991 54.5 20.5991C53.675 20.5991 53 20.1491 53 19.5991C53 19.0491 53.675 18.5991 54.5 18.5991C55.325 18.5991 56 19.0491 56 19.5991ZM61 19.5991C61 20.1491 60.325 20.5991 59.5 20.5991C58.675 20.5991 58 20.1491 58 19.5991C58 19.0491 58.675 18.5991 59.5 18.5991C60.325 18.5991 61 19.0491 61 19.5991ZM11 25.0991C11 25.9241 10.325 26.5991 9.5 26.5991C8.675 26.5991 8 25.9241 8 25.0991C8 24.2741 8.675 23.5991 9.5 23.5991C10.325 23.5991 11 24.2741 11 25.0991ZM16 25.0991C16 25.9241 15.55 26.5991 15 26.5991C14.45 26.5991 14 25.9241 14 25.0991C14 24.2741 14.45 23.5991 15 23.5991C15.55 23.5991 16 24.2741 16 25.0991ZM55 25.0991C55 25.9241 54.55 26.5991 54 26.5991C53.45 26.5991 53 25.9241 53 25.0991C53 24.2741 53.45 23.5991 54 23.5991C54.55 23.5991 55 24.2741 55 25.0991ZM61 25.0991C61 25.9241 60.325 26.5991 59.5 26.5991C58.675 26.5991 58 25.9241 58 25.0991C58 24.2741 58.675 23.5991 59.5 23.5991C60.325 23.5991 61 24.2741 61 25.0991ZM11 31.0991C11 31.9241 10.325 32.5991 9.5 32.5991C6.898 32.5991 7.741 30.6281 10.75 29.6781C10.887 29.6351 11 30.2741 11 31.0991ZM16 31.5991C16 32.1491 15.55 32.5991 15 32.5991C14.45 32.5991 14 32.1491 14 31.5991C14 31.0491 14.45 30.5991 15 30.5991C15.55 30.5991 16 31.0491 16 31.5991ZM39 36.5991V42.5991H34.5H30V36.5991V30.5991H34.5H39V36.5991ZM56 31.5991C56 32.1491 55.325 32.5991 54.5 32.5991C53.675 32.5991 53 32.1491 53 31.5991C53 31.0491 53.675 30.5991 54.5 30.5991C55.325 30.5991 56 31.0491 56 31.5991ZM61 31.5991C61 32.1491 60.325 32.5991 59.5 32.5991C58.675 32.5991 58 32.1491 58 31.5991C58 31.0491 58.675 30.5991 59.5 30.5991C60.325 30.5991 61 31.0491 61 31.5991Z" fill="white"/>
</svg>
