<svg width="98" height="108" viewBox="0 0 98 108" fill="none" xmlns="http://www.w3.org/2000/svg">
<path fill-rule="evenodd" clip-rule="evenodd" d="M38.7638 0.947077C31.3328 2.38808 20.1268 8.53608 14.2858 14.3781C3.60081 25.0631 -1.76319 41.2881 0.518811 56.0271C2.51481 68.9271 12.2928 84.9021 16.5498 82.2211C19.4138 80.4171 19.1018 77.9931 15.2938 72.4641C2.26181 53.5421 7.02881 27.5251 25.8298 14.9711C32.9518 10.2151 36.8028 8.91508 46.0548 8.14608C79.9178 5.33108 101.745 44.1351 82.2338 72.4641C78.4258 77.9931 78.1138 80.4171 80.9778 82.2211C83.4858 83.8001 88.0968 78.9781 92.3988 70.2771C110.254 34.1631 78.5848 -6.77192 38.7638 0.947077ZM39.7148 16.1541C30.6418 18.7281 21.5328 26.7211 17.4608 35.6801C13.2678 44.9041 15.0878 62.8561 20.2158 62.8561C22.4628 62.8561 24.9598 59.7861 24.1818 57.9771C23.7988 57.0851 23.2678 53.7531 23.0018 50.5721C22.1188 40.0051 28.1938 29.9081 38.2638 25.2091C55.6438 17.0981 76.1268 31.4241 74.5258 50.5721C74.2598 53.7531 73.7288 57.0851 73.3458 57.9771C72.5678 59.7861 75.0648 62.8561 77.3118 62.8561C80.4768 62.8561 82.2658 57.7741 82.2238 48.9001C82.1908 41.6921 81.7588 39.4771 79.4598 34.7301C76.2608 28.1231 68.5638 20.5401 62.1988 17.7241C56.5168 15.2111 45.7028 14.4561 39.7148 16.1541ZM41.2638 31.7461C25.8588 38.8561 26.3008 59.7511 41.9958 66.3081C46.6928 68.2711 50.8348 68.2711 55.5318 66.3081C71.5428 59.6191 71.5428 38.0931 55.5318 31.4041C50.6668 29.3711 46.1768 29.4791 41.2638 31.7461ZM35.2638 71.2681C30.0328 73.5931 28.0788 76.9341 23.6928 91.0571C20.1548 102.449 19.6548 105.019 20.7228 106.307C21.8248 107.635 25.8258 107.856 48.7638 107.856C71.7018 107.856 75.7028 107.635 76.8048 106.307C77.8728 105.019 77.3728 102.449 73.8348 91.0571C69.3968 76.7661 67.4798 73.5431 62.0458 71.2271C57.7958 69.4161 39.3668 69.4441 35.2638 71.2681Z" fill="#156082"/>
</svg>
