<svg width="112" height="97" viewBox="0 0 112 97" fill="none" xmlns="http://www.w3.org/2000/svg">
<path fill-rule="evenodd" clip-rule="evenodd" d="M75.9521 0.972845C75.0321 1.50884 73.3881 3.40784 72.2991 5.19184C66.2991 15.0218 74.4381 30.6738 83.8321 27.3698C88.1691 25.8438 91.8901 19.4498 91.9111 13.4858C91.9301 8.09584 89.4391 2.70985 86.1001 0.922845C83.7601 -0.329155 78.1351 -0.302155 75.9521 0.972845ZM87.7161 12.1858C90.6811 14.9968 90.7321 17.2558 87.9221 21.2818C85.1111 25.3088 84.2191 25.9018 80.9471 25.9208C79.0611 25.9308 77.3611 24.8328 75.1971 22.2078C71.7501 18.0258 71.2631 15.1338 73.8741 14.3418C74.8371 14.0498 77.6491 12.9838 80.1241 11.9728C82.5991 10.9618 84.7861 10.0908 84.9831 10.0358C85.1811 9.98084 86.4101 10.9478 87.7161 12.1858ZM18.4011 25.9088C10.7041 30.6018 14.0781 41.9358 23.1721 41.9358C32.7321 41.9358 35.6451 29.8418 27.1441 25.4458C23.3541 23.4868 22.2801 23.5428 18.4011 25.9088ZM69.3241 32.1358C67.8501 33.6098 67.7821 36.4288 69.1591 39.0018C69.9171 40.4168 71.2631 40.9358 74.1811 40.9358C77.4061 40.9358 78.3731 41.3888 79.2481 43.3098C80.8461 46.8158 78.8781 49.9358 75.0671 49.9358C72.7391 49.9358 71.8421 49.3298 70.9961 47.1858C70.3991 45.6728 69.4921 43.7608 68.9811 42.9358C68.4701 42.1108 67.5191 40.1988 66.8681 38.6858C64.7011 33.6468 63.6811 35.2188 62.6061 45.2618L61.8911 51.9358H81.1091H100.327L99.6141 44.6858C98.9311 37.7368 97.8941 34.9358 96.0021 34.9358C95.5191 34.9358 95.1241 35.5708 95.1241 36.3468C95.1241 37.1228 93.7091 38.9488 91.9801 40.4028C89.6211 42.3878 89.1221 43.3338 89.9801 44.1918C91.3891 45.6008 91.4901 48.9358 90.1241 48.9358C89.5741 48.9358 89.1241 47.9988 89.1241 46.8528C89.1241 45.6168 88.6151 44.9488 87.8741 45.2098C87.1871 45.4528 86.6871 46.3898 86.7631 47.2938C86.9191 49.1368 85.5881 49.4948 84.5881 47.8778C83.8491 46.6818 88.6351 38.9358 90.1131 38.9358C90.6411 38.9358 91.7361 37.6528 92.5471 36.0848C93.6571 33.9378 93.7381 32.9498 92.8731 32.0848C91.2401 30.4518 86.5961 30.6618 85.1241 32.4358C84.4391 33.2608 83.4361 33.9358 82.8951 33.9358C82.3531 33.9358 82.1691 33.2608 82.4861 32.4358C82.8751 31.4208 82.4351 30.9358 81.1241 30.9358C79.8131 30.9358 79.3731 31.4208 79.7621 32.4358C80.0791 33.2608 79.8951 33.9358 79.3531 33.9358C78.8121 33.9358 77.8091 33.2608 77.1241 32.4358C75.6321 30.6378 71.0001 30.4598 69.3241 32.1358ZM72.6801 43.8458C71.8701 45.1568 73.1271 47.9358 74.5311 47.9358C76.3591 47.9358 78.0301 45.8548 77.4391 44.3138C76.8461 42.7688 73.5461 42.4438 72.6801 43.8458ZM17.0821 46.4858C15.2151 48.7358 15.7191 70.6238 17.7081 73.6858C19.0211 75.7068 19.9771 75.9358 27.0821 75.9358C39.0441 75.9358 39.8291 76.4418 40.5641 84.6288C41.4011 93.9508 42.2541 96.3768 44.8261 96.7468C48.3871 97.2578 48.9541 94.4558 47.6921 82.5738C46.3791 70.2088 45.8991 69.5048 38.0211 68.4218C31.9691 67.5888 30.1371 65.9038 30.0801 61.1148C30.0011 54.4238 28.3841 48.5648 26.1081 46.7218C23.3941 44.5238 18.8101 44.4038 17.0821 46.4858ZM1.37408 51.5978C-1.12492 52.6068 -0.00392151 55.9598 3.03508 56.5678C6.57608 57.2758 7.09208 58.8808 7.11008 69.2358C7.12508 77.4718 8.65308 82.0768 11.8371 83.4818C12.8201 83.9158 17.8951 84.5328 23.1151 84.8528L32.6061 85.4358L33.3021 90.3228C34.0871 95.8388 35.2361 97.4908 37.6441 96.5668C39.3361 95.9168 39.3271 95.3758 37.4331 84.1138C36.6841 79.6588 33.6591 78.5758 24.1031 79.3418C12.8371 80.2448 12.5551 79.9118 11.8611 64.8468C11.4661 56.2648 10.9041 52.4118 9.96208 51.8148C8.52308 50.9028 3.41708 50.7738 1.37408 51.5978ZM51.1241 58.5298C51.1241 59.4058 52.0141 60.3558 53.1011 60.6398C54.9641 61.1268 55.0951 62.1858 55.3511 78.7968L55.6241 96.4358H81.1241H106.624L106.897 78.7968C107.153 62.1858 107.284 61.1268 109.147 60.6398C110.234 60.3558 111.124 59.4058 111.124 58.5298C111.124 57.1068 107.907 56.9358 81.1241 56.9358C54.3411 56.9358 51.1241 57.1068 51.1241 58.5298ZM84.1241 70.9358V74.9358H88.1241C91.9021 74.9358 92.1241 75.1028 92.1241 77.9358C92.1241 80.7688 91.9021 80.9358 88.1241 80.9358H84.1241V84.9358C84.1241 88.7138 83.9571 88.9358 81.1241 88.9358C78.2911 88.9358 78.1241 88.7138 78.1241 84.9358V80.9358H74.1241C70.3461 80.9358 70.1241 80.7688 70.1241 77.9358C70.1241 75.1028 70.3461 74.9358 74.1241 74.9358H78.1241V70.9358C78.1241 67.1578 78.2911 66.9358 81.1241 66.9358C83.9571 66.9358 84.1241 67.1578 84.1241 70.9358Z" fill="#156082"/>
</svg>
