<svg width="105" height="105" viewBox="0 0 105 105" fill="none" xmlns="http://www.w3.org/2000/svg">
<path fill-rule="evenodd" clip-rule="evenodd" d="M40.9858 1.06588C33.1778 2.57988 22.3058 8.67588 15.5518 15.3269C-5.15122 35.7149 -5.18822 68.8379 15.4668 89.4939C36.0918 110.118 68.8508 110.11 89.4858 89.4749C110.121 68.8399 110.129 36.0809 89.5048 15.4559C76.8668 2.81888 59.1108 -2.44712 40.9858 1.06588ZM73.3818 10.8079C93.9138 20.9819 104.197 43.3889 98.4528 65.4399C92.8118 87.0969 71.6078 102.362 49.4838 100.695C30.8448 99.2899 14.3918 87.2389 7.98078 70.2989C5.19478 62.9359 4.26878 50.1659 5.99078 42.8609C9.12378 29.5779 18.1678 17.7549 29.9188 11.5799C39.0858 6.76188 42.6948 6.00188 54.7348 6.34988C64.4688 6.63188 65.4048 6.85588 73.3818 10.8079ZM43.3788 13.3849C37.5038 14.8109 31.3028 17.8569 26.3358 21.7589C23.0368 24.3499 14.9858 35.2239 14.9858 37.0889C14.9858 37.5759 23.7738 37.9749 34.5158 37.9749H54.0458L51.8588 35.0169C50.0438 32.5629 49.8898 31.7959 50.9508 30.5169C53.3228 27.6589 56.3778 28.8029 62.2668 34.7539C65.4128 37.9319 67.9858 41.0139 67.9858 41.6019C67.9858 43.1779 56.3778 53.9749 54.6828 53.9749C53.8838 53.9749 52.6318 53.2529 51.8998 52.3709C50.7818 51.0249 50.8358 50.3019 52.2308 47.8709L53.8928 44.9749H33.0448H12.1958L11.7908 49.2249C11.1728 55.7069 12.6968 64.4879 15.4498 70.3079C28.7648 98.4539 66.3818 102.306 85.2068 77.4509C87.2798 74.7139 88.9778 72.1369 88.9808 71.7249C88.9838 71.3129 80.4028 70.9749 69.9128 70.9749H50.8408L52.8908 73.5819C54.4648 75.5819 54.7058 76.6289 53.9288 78.0819C52.2098 81.2939 49.6798 80.2289 42.9868 73.4759L36.5458 66.9769L42.4848 60.9759C46.1848 57.2369 49.2578 54.9749 50.6368 54.9749C53.5558 54.9749 54.7158 58.5109 52.5738 60.8779C51.6978 61.8459 51.2828 62.9379 51.6498 63.3059C52.0178 63.6739 60.9638 63.9749 71.5298 63.9749C87.2118 63.9749 90.9648 63.7049 91.9608 62.5049C92.7888 61.5079 93.0688 58.0519 92.8328 51.7549C92.5378 43.8789 92.0158 41.4839 89.3808 35.9239C83.8978 24.3519 72.9318 15.7749 60.1868 13.0909C53.6708 11.7189 49.9758 11.7829 43.3788 13.3849Z" fill="#156082"/>
</svg>
