<svg width="125" height="125" viewBox="0 0 125 125" fill="none" xmlns="http://www.w3.org/2000/svg">
<path fill-rule="evenodd" clip-rule="evenodd" d="M60.4589 0.218304C58.0929 1.0393 1.40691 57.7563 0.383907 60.3263C-0.252093 61.9243 -0.103093 63.4673 0.869907 65.3493C1.64291 66.8433 15.1509 80.7673 30.8869 96.2923C55.7279 120.799 59.8999 124.52 62.5399 124.52C65.1819 124.52 69.3199 120.818 94.1159 96.2703C109.811 80.7333 123.283 66.8083 124.052 65.3263C125.022 63.4613 125.17 61.9233 124.534 60.3263C123.301 57.2273 66.4969 0.851304 63.9589 0.206304C62.8589 -0.0736964 61.2839 -0.0676963 60.4589 0.218304ZM92.2029 32.7633C107.744 48.2973 120.459 61.4633 120.459 62.0203C120.459 62.5773 107.409 76.0773 91.4589 92.0203L62.4589 121.007L33.4589 92.0203C17.5089 76.0773 4.45891 62.5833 4.45891 62.0333C4.45891 60.4073 60.8069 4.5203 62.4459 4.5203C63.2709 4.5203 76.6609 17.2303 92.2029 32.7633ZM62.1829 26.6543C60.6709 27.5013 60.4589 29.4533 60.4589 42.5113C60.4589 51.3603 60.0529 57.6533 59.4589 58.0203C58.8119 58.4203 58.4589 54.0713 58.4589 45.7013C58.4589 31.8523 57.7229 29.6673 53.5069 31.0053C51.5679 31.6203 51.4589 32.4213 51.4589 46.0283C51.4589 54.5323 51.0509 60.6543 50.4589 61.0203C49.8179 61.4163 49.4589 58.0713 49.4589 51.7013C49.4589 41.0923 48.4879 38.7413 44.6149 39.9713C41.8359 40.8523 41.4879 43.1543 41.4729 60.7213C41.4549 80.9803 42.4559 85.7523 47.8559 91.1693C54.6139 97.9453 63.1069 99.0653 71.6199 94.3003C76.2939 91.6853 77.6959 89.7133 85.6869 74.5203C90.9589 64.4973 92.0889 61.5743 91.3929 59.7703C90.7579 58.1263 89.7109 57.5203 87.5079 57.5203C84.8879 57.5203 84.1549 58.1863 81.9199 62.5963C79.7899 66.8003 79.0999 67.4673 77.9029 66.4743C76.7549 65.5213 76.4589 62.0243 76.4589 49.4333C76.4589 35.2803 76.2699 33.4893 74.6829 32.6403C73.5569 32.0373 72.2769 32.0423 71.1829 32.6543C69.6889 33.4913 69.4589 35.3533 69.4589 46.6293C69.4589 55.0473 69.1059 59.4203 68.4589 59.0203C67.8619 58.6513 67.4589 52.1883 67.4589 42.9963C67.4589 29.2623 67.2659 27.4873 65.6829 26.6403C64.5569 26.0373 63.2769 26.0423 62.1829 26.6543Z" fill="#156082"/>
</svg>
