<svg width="87" height="101" viewBox="0 0 87 101" fill="none" xmlns="http://www.w3.org/2000/svg">
<path fill-rule="evenodd" clip-rule="evenodd" d="M10.619 1.034C9.035 1.509 6.63 2.933 5.274 4.198C-0.0119991 9.136 2.45116e-07 9.027 2.45116e-07 50.564C2.45116e-07 88.461 0.0430002 89.305 2.184 93.114C3.576 95.59 5.867 97.725 8.5 99C12.358 100.868 14.675 101 43.5 101C72.325 101 74.642 100.868 78.5 99C81.133 97.725 83.424 95.59 84.816 93.114C86.938 89.338 87 88.298 87 56.379V23.53L75.266 11.765L63.531 0L38.516 0.086C24.757 0.133 12.204 0.56 10.619 1.034ZM59.28 13.153C60.161 22.862 65.165 28.017 74.459 28.788L80 29.248L79.968 58.874C79.945 80.585 79.611 88.924 78.718 90.087C75.906 93.75 73.655 94 43.5 94C13.345 94 11.094 93.75 8.282 90.087C6.532 87.808 6.532 13.186 8.282 10.927C11.033 7.376 13.283 7.061 36.111 7.03L58.722 7L59.28 13.153ZM71.208 16.703C75.466 20.86 75.87 22 73.089 22C70.982 22 66 16.675 66 14.423C66 12.213 67.106 12.697 71.208 16.703ZM24.794 15.75C22.011 18.962 16.055 28.934 15.428 31.433C14.966 33.27 15.459 34.55 17.359 36.45C22.17 41.261 25.246 39.668 31.392 29.185C33.926 24.862 36 20.862 36 20.297C36 19.732 35.067 18.084 33.927 16.635C31.49 13.536 27.082 13.109 24.794 15.75ZM26.367 28.249C28.112 29.553 28.131 29.846 26.654 32.701C24.786 36.314 22.583 37.382 19.928 35.961C17.152 34.476 17.063 31.36 19.682 27.362C21.26 24.954 22.109 25.066 26.367 28.249ZM35.455 32.455C32.114 35.795 32.19 40.218 35.635 42.927C39.966 46.334 44.182 45.3 46.92 40.159C49.211 35.86 44.877 30 39.407 30C38.583 30 36.805 31.105 35.455 32.455ZM43.768 37.715C42.265 37.943 39.565 37.947 37.768 37.725C35.971 37.502 37.2 37.315 40.5 37.31C43.8 37.304 45.271 37.486 43.768 37.715ZM15.19 55.75C15.478 57.242 16.702 57.5 23.5 57.5C30.298 57.5 31.522 57.242 31.81 55.75C32.11 54.192 31.197 54 23.5 54C15.803 54 14.89 54.192 15.19 55.75ZM35 56.048C35 57.924 35.521 58.071 41.24 57.798C46.246 57.559 47.546 57.154 47.813 55.75C48.103 54.227 47.294 54 41.573 54C35.616 54 35 54.192 35 56.048ZM56.667 56.667C56.3 57.033 56 60.408 56 64.167C56 70.255 56.211 71 57.934 71C59.3 71 59.96 70.193 60.184 68.25L60.5 65.5L63.456 69.365L66.412 73.229L64.176 77.115C61.951 80.982 61.95 81 64.002 81C65.135 81 66.322 80.325 66.638 79.5C66.955 78.675 67.793 78 68.5 78C69.207 78 70.045 78.675 70.362 79.5C70.901 80.905 75 81.704 75 80.404C75 80.077 74.069 78.502 72.932 76.904L70.864 74L72.932 71.096C74.069 69.498 75 67.923 75 67.596C75 66.229 71.023 67.136 70.146 68.703C69.343 70.139 68.943 70.198 67.597 69.08C65.809 67.597 65.472 64.444 67 63.5C68.748 62.42 68.079 59.169 65.777 57.557C63.534 55.985 57.898 55.435 56.667 56.667ZM64 61.138C64 62.273 61.134 63.468 60.333 62.667C60.014 62.347 60.016 61.399 60.339 60.56C60.945 58.98 64 59.463 64 61.138ZM15 69C15 70.919 15.667 71 31.5 71C47.333 71 48 70.919 48 69C48 67.081 47.333 67 31.5 67C15.667 67 15 67.081 15 69ZM15.667 80.667C14.149 82.185 15.147 84 17.5 84C19.333 84 20 83.467 20 82C20 80.049 17.159 79.175 15.667 80.667ZM23.697 80.637C23.314 81.02 23 81.933 23 82.667C23 83.707 25.762 84 35.573 84C47.009 84 48.116 83.842 47.811 82.25C47.519 80.724 46 80.464 35.935 80.22C29.587 80.066 24.08 80.253 23.697 80.637Z" fill="#156082"/>
</svg>
