<svg width="85" height="85" viewBox="0 0 85 85" fill="none" xmlns="http://www.w3.org/2000/svg">
<path fill-rule="evenodd" clip-rule="evenodd" d="M36.0488 12.542C30.353 17.989 29.7478 19.379 32.1807 21.421C33.4328 22.472 34.0836 22.32 35.9538 20.544C38.8872 17.757 39.3738 17.835 39.7516 21.147C40.1927 25.026 43.8916 25.026 44.3327 21.147C44.7105 17.835 45.1971 17.757 48.1305 20.544C50.0007 22.32 50.6515 22.472 51.9036 21.421C52.7354 20.723 53.4158 19.597 53.4158 18.92C53.4158 17.707 43.2389 7.39697 42.0422 7.39697C41.7049 7.39697 39.0079 9.71197 36.0488 12.542ZM14.2935 29.684C14.0185 30.409 13.9187 36.829 14.0719 43.95L14.3499 56.897H42.0422H69.7345V42.897V28.897L42.2647 28.631C20.2503 28.418 14.695 28.627 14.2935 29.684ZM49.9543 35.511C52.3951 37.917 52.9213 39.245 52.9213 42.998C52.9213 46.881 52.4436 47.993 49.7149 50.458C45.5472 54.223 42.6376 54.884 38.3037 53.053C33.778 51.141 31.1779 47.107 31.3055 42.193C31.4182 37.85 33.6168 34.8 38.0861 32.788C42.0788 30.99 46.3651 31.973 49.9543 35.511ZM39.2878 35.349C35.128 39.555 36.1477 44.397 41.1926 44.397C42.4121 44.397 43.6552 44.8 43.9559 45.292C44.7352 46.568 42.1252 47.376 40.5023 46.362C39.7041 45.863 38.6063 45.96 37.8478 46.597C36.8152 47.464 37.0981 48.231 39.2541 50.411L41.9532 53.141L44.7174 50.346C48.9277 46.089 47.9703 41.397 42.8917 41.397C41.6723 41.397 40.3984 40.944 40.0602 40.39C39.1483 38.899 42.3448 37.991 43.9015 39.297C44.9044 40.139 45.5116 40.093 46.3157 39.113C47.1277 38.124 46.7271 37.17 44.6818 35.218L41.9729 32.633L39.2878 35.349ZM39.3896 64.431L39.0751 67.587L36.6985 65.492C33.9422 63.063 33.4605 62.974 31.8554 64.597C30.0623 66.41 30.3234 67.063 34.8095 71.984C41.4102 79.224 41.7544 79.258 47.9901 73.295C53.3743 68.147 54.75 64.852 51.9669 63.772C51.1707 63.463 49.1987 64.161 47.5846 65.323L44.6502 67.436L44.3347 64.666C44.1122 62.707 43.3892 61.806 41.8622 61.586C40.0859 61.331 39.6488 61.834 39.3896 64.431Z" fill="#156082"/>
</svg>
