<svg width="31" height="30" viewBox="0 0 31 30" fill="none" xmlns="http://www.w3.org/2000/svg">
<path d="M24.25 3.75C24.913 3.75 25.5489 4.01339 26.0178 4.48223C26.4866 4.95107 26.75 5.58696 26.75 6.25V23.75C26.75 24.413 26.4866 25.0489 26.0178 25.5178C25.5489 25.9866 24.913 26.25 24.25 26.25H6.75C6.08696 26.25 5.45107 25.9866 4.98223 25.5178C4.51339 25.0489 4.25 24.413 4.25 23.75V6.25C4.25 5.58696 4.51339 4.95107 4.98223 4.48223C5.45107 4.01339 6.08696 3.75 6.75 3.75H24.25ZM23.625 23.125V16.5C23.625 15.4192 23.1957 14.3828 22.4315 13.6185C21.6672 12.8543 20.6308 12.425 19.55 12.425C18.4875 12.425 17.25 13.075 16.65 14.05V12.6625H13.1625V23.125H16.65V16.9625C16.65 16 17.425 15.2125 18.3875 15.2125C18.8516 15.2125 19.2967 15.3969 19.6249 15.7251C19.9531 16.0533 20.1375 16.4984 20.1375 16.9625V23.125H23.625ZM9.1 10.7C9.65695 10.7 10.1911 10.4788 10.5849 10.0849C10.9788 9.6911 11.2 9.15695 11.2 8.6C11.2 7.4375 10.2625 6.4875 9.1 6.4875C8.53973 6.4875 8.00241 6.71007 7.60624 7.10624C7.21007 7.50241 6.9875 8.03973 6.9875 8.6C6.9875 9.7625 7.9375 10.7 9.1 10.7ZM10.8375 23.125V12.6625H7.375V23.125H10.8375Z" fill="white"/>
</svg>
