<svg width="59" height="59" viewBox="0 0 59 59" fill="none" xmlns="http://www.w3.org/2000/svg">
<path fill-rule="evenodd" clip-rule="evenodd" d="M20.924 3.52212C18.542 5.90412 18.001 7.29512 18.001 11.0361C18.001 13.5601 17.497 16.4331 16.882 17.4181C16.005 18.8231 16.205 20.0641 17.807 23.1551C25.221 37.4591 34.043 38.1241 41.23 24.9201C43.688 20.4031 43.808 19.6041 43 13.0911C42.258 7.10812 41.692 5.71212 39.052 3.35312C36.407 0.990121 35.11 0.599121 29.908 0.599121C24.542 0.599121 23.512 0.934121 20.924 3.52212ZM32.517 13.2631C37.898 14.4451 39.944 15.3061 39.587 16.2361C39.31 16.9571 39.814 17.9551 40.707 18.4541C42.153 19.2641 42.04 19.8561 39.666 23.9081C36.715 28.9441 32.65 32.5991 30.001 32.5991C27.343 32.5991 23.481 29.0951 20.461 23.9401C17.889 19.5521 17.831 19.1961 19.489 17.9841C20.474 17.2641 20.994 16.0241 20.668 15.1731C20.146 13.8121 22.252 11.7121 24.223 11.6291C24.619 11.6131 28.352 12.3481 32.517 13.2631ZM13.001 39.6861C5.28196 41.8961 2.40296 44.7321 1.45296 51.0681C0.246965 59.1121 -1.52503 58.6631 30.226 58.3651L58.501 58.0991L58.354 52.7261C58.167 45.8721 55.797 42.5281 49.912 40.8161C47.486 40.1101 44.029 39.0651 42.231 38.4941C39.35 37.5791 38.597 37.7611 35.904 40.0271C32.031 43.2861 28 43.3111 24.183 40.0991C20.776 37.2321 21.483 37.2581 13.001 39.6861ZM47.001 47.0991C47.001 47.9241 47.676 48.5991 48.501 48.5991C49.326 48.5991 50.001 49.2741 50.001 50.0991C50.001 50.9241 49.326 51.5991 48.501 51.5991C47.676 51.5991 47.001 52.2741 47.001 53.0991C47.001 53.9241 46.551 54.5991 46.001 54.5991C45.451 54.5991 45.001 53.9241 45.001 53.0991C45.001 52.2741 44.326 51.5991 43.501 51.5991C42.676 51.5991 42.001 50.9241 42.001 50.0991C42.001 49.2741 42.676 48.5991 43.501 48.5991C44.326 48.5991 45.001 47.9241 45.001 47.0991C45.001 46.2741 45.451 45.5991 46.001 45.5991C46.551 45.5991 47.001 46.2741 47.001 47.0991Z" fill="white"/>
</svg>
