<svg width="88" height="57" viewBox="0 0 88 57" fill="none" xmlns="http://www.w3.org/2000/svg">
<path fill-rule="evenodd" clip-rule="evenodd" d="M14.1342 0.829001C13.7625 1.25652 0.190952 25.4755 0.0349186 25.9895C-0.122052 26.5069 0.150631 26.7378 2.95454 28.4608C6.28431 30.5072 6.57331 30.6587 6.90225 30.5322C7.0656 30.4694 7.78388 29.3758 8.49878 28.1021C19.979 7.64591 21.3224 5.18799 21.2127 4.84131C21.1431 4.62135 19.7769 3.66781 17.8379 2.48585C16.0461 1.39357 14.5441 0.5 14.5001 0.5C14.4562 0.5 14.2915 0.647957 14.1342 0.829001ZM70.1622 2.46856C68.4127 3.53471 66.9036 4.58168 66.8087 4.79506C66.6389 5.17614 67.4354 6.64011 79.9111 28.8804C80.9071 30.6561 81.1136 30.7928 82.0215 30.2778C83.8451 29.2434 87.4403 26.966 87.7679 26.6376C88.2253 26.1792 88.8435 27.3832 80.5733 12.6261C74.5156 1.81638 73.7291 0.478192 73.4549 0.51504C73.3936 0.523124 71.9118 1.40222 70.1622 2.46856ZM42.2762 7.75683C39.2405 8.08809 36.2704 8.66525 35.395 9.09427C34.5616 9.50279 33.6134 10.738 29.9783 16.1492C27.3304 20.0908 27.2299 20.2758 27.1526 21.3468C27.0645 22.5675 27.0256 22.5254 28.4639 22.7681C29.4102 22.9279 31.4221 22.4322 32.8154 21.6958C33.9626 21.0895 35.7759 19.423 37.1134 17.7461C37.9236 16.7303 39.2229 15.9161 40.9662 15.3316C42.7734 14.7256 43.3193 14.8601 46.9488 16.8046C54.089 20.63 61.0442 25.2561 68.4063 31.0763C70.0231 32.3543 71.5131 33.4001 71.7173 33.4001C72.144 33.4001 77.5665 28.9816 77.556 28.6424C77.5404 28.1376 66.5403 8.86754 66.2895 8.90589C66.1465 8.92789 65.5651 9.08148 64.9978 9.2473C63.4052 9.71279 60.8048 9.52404 57.4962 8.70304C52.5054 7.4643 47.6968 7.16538 42.2762 7.75683ZM15.8003 18.8929C12.74 24.3451 10.2361 28.9017 10.2361 29.0186C10.2361 29.1355 11.0054 30.1748 11.9456 31.328L13.655 33.425L14.0554 33.0585C14.9019 32.2838 15.7249 31.9977 17.0813 32.0065C19.0166 32.0193 20.304 32.7799 21.4465 34.5859L21.9744 35.4206L22.9401 34.3428C24.082 33.0679 24.871 32.6481 26.1251 32.6481C28.4232 32.6481 30.5146 34.1912 31.1101 36.3266C31.2851 36.9537 31.4281 37.7785 31.4281 38.1596C31.4281 38.7042 31.5011 38.8522 31.7698 38.8522C32.5461 38.8522 33.9209 39.5021 34.7772 40.274C35.8179 41.2118 36.3944 42.3838 36.587 43.9522L36.7168 45.0103L37.5425 45.1237C38.7133 45.2846 39.703 45.845 40.5806 46.8448C42.279 48.779 42.3544 51.1472 40.7877 53.3527C40.5685 53.6614 40.4194 53.9441 40.4565 53.9811C40.4934 54.0182 41.9585 54.3682 43.712 54.7593C47.629 55.6329 49.8236 55.7296 51.0345 55.0817C51.8531 54.6439 53.4329 53.0466 53.336 52.755C53.3034 52.6569 51.4199 51.68 49.1507 50.5844C46.8814 49.4887 44.9194 48.5053 44.7904 48.3992C44.6615 48.293 44.5559 47.961 44.5559 47.6611C44.5559 47.2633 44.6816 47.0588 45.0212 46.9037C45.4364 46.714 45.9449 46.9157 49.7632 48.7867C54.3907 51.0538 55.4456 51.383 57.3687 51.1593C58.679 51.0068 59.2322 50.5721 59.5426 49.4513C59.8265 48.4265 59.7956 47.7749 59.4496 47.487C59.2862 47.3511 56.8599 45.9108 54.0578 44.2865C48.829 41.2554 48.1648 40.7365 48.6072 40.0289C48.7208 39.8469 49.0038 39.67 49.236 39.6356C49.6544 39.5735 52.6592 41.2195 58.2463 44.5713L60.7781 46.0902L62.1847 46.0846C63.8166 46.0782 64.6326 45.7341 65.1883 44.8182C65.6483 44.0598 65.8545 42.7141 65.5973 42.1482C65.4674 41.8622 63.2507 40.4176 59.1242 37.9298C55.6727 35.8488 52.7634 34.0418 52.659 33.9141C52.5547 33.7867 52.4399 33.4708 52.4041 33.2125C52.3478 32.8076 52.4349 32.7188 53.034 32.5703C53.6357 32.421 53.8249 32.4631 54.4406 32.8837C56.0666 33.9942 67.0172 40.4959 67.6044 40.6993C68.5335 41.0211 69.2744 40.9715 70.1922 40.5261C71.181 40.0463 71.9367 38.873 71.9367 37.8182C71.9367 36.4661 71.28 35.727 67.396 32.7083C58.8457 26.0625 55.1206 23.5119 48.778 19.9609C44.5706 17.6053 42.8611 16.8177 42.2235 16.9418C40.7005 17.2377 39.5916 17.995 37.4294 20.2155C34.3438 23.3844 32.27 24.4974 29.0674 24.7036C27.2781 24.8188 26.4591 24.5981 25.6922 23.7944C25.1889 23.2667 25.1463 23.1139 25.1563 21.8644C25.1701 20.0981 25.7284 18.8872 28.3429 14.9535C29.4209 13.3316 30.3029 11.9639 30.3029 11.9143C30.3029 11.8645 29.7333 11.7631 29.037 11.6889C26.3867 11.4063 23.4123 10.4268 21.8484 9.32175L21.3644 8.97959L15.8003 18.8929ZM15.5758 34.37C14.7617 35.0865 13.3052 37.0951 13.0339 37.8757C12.6232 39.0567 13.6094 41.0787 14.8496 41.5981C15.1938 41.7423 15.8406 41.8602 16.2871 41.8602C16.9816 41.8602 17.1957 41.7581 17.767 41.1552C20.3445 38.4348 20.8233 36.6227 19.395 34.9919C18.1777 33.6021 16.7183 33.3644 15.5758 34.37ZM25.0473 34.9511C24.4119 35.3828 19.3562 42.0942 18.6391 43.4582C17.6925 45.2583 18.715 47.4562 20.762 48.0213C21.758 48.2962 22.2929 48.1219 23.1364 47.2473C24.3622 45.9763 29.1636 39.2246 29.3971 38.4436C30.1244 36.01 27.083 33.568 25.0473 34.9511ZM30.4693 41.0142C30.003 41.2682 27.406 44.6198 25.5437 47.371C24.57 48.8096 24.4785 49.3947 25.0355 50.624C25.5366 51.7302 26.5354 52.4343 27.7464 52.5351C28.5929 52.6054 28.8045 52.5503 29.3029 52.1299C30.0887 51.467 34.2504 45.6892 34.5434 44.8543C35.0638 43.3717 34.028 41.4964 32.3848 40.9457C31.557 40.6684 31.072 40.6857 30.4693 41.0142ZM35.7376 47.2406C35.2035 47.5733 32.5421 51.0294 31.9696 52.134C31.2712 53.4813 31.8983 55.1836 33.423 56.0792C34.4622 56.6897 35.6849 56.631 36.4263 55.935C36.9384 55.4541 39.4755 52.0162 39.8614 51.2798C40.2341 50.5689 40.01 49.133 39.4018 48.3336C38.4873 47.1317 36.7464 46.6125 35.7376 47.2406Z" fill="white"/>
</svg>
