<svg width="58" height="87" viewBox="0 0 58 87" fill="none" xmlns="http://www.w3.org/2000/svg">
<path fill-rule="evenodd" clip-rule="evenodd" d="M22.4965 0.0805077C15.8674 0.657761 9.57896 4.60719 6.02031 10.4284C4.54301 12.8449 3.5838 15.4256 3.04022 18.4455C2.80839 19.7333 2.80457 19.8215 2.76568 24.7199L2.72635 29.6881L2.50641 29.8977C2.33203 30.0638 2.14849 30.1188 1.62134 30.1625C0.640825 30.2439 0.14102 30.7043 0.034027 31.6247C0.00410447 31.8823 -0.00850338 40.8289 0.00605833 51.5061C0.0309198 69.7909 0.0414857 70.9358 0.187724 71.2071C0.273141 71.3655 0.489791 71.6088 0.669149 71.7476L0.995277 72H24.4943H47.9934L48.3195 71.7476C48.9376 71.2693 48.9562 71.181 48.9562 68.737C48.9562 66.5869 48.9533 66.5519 48.7541 66.3498L48.5521 66.1446L44.7585 66.0995C41.036 66.0553 40.9567 66.0506 40.5211 65.8475C38.3265 64.8242 38.4171 61.6388 40.6655 60.772C41.0627 60.6189 41.4038 60.6045 44.6286 60.6043C47.8105 60.6042 48.1875 60.5887 48.4666 60.4466C48.9661 60.1925 48.9979 60.0444 48.9993 57.9667C49.0008 55.8347 48.9441 55.5615 48.4641 55.3918C48.2671 55.3222 47.0486 55.2896 44.6399 55.2896C41.2583 55.2896 41.0831 55.2813 40.603 55.099C39.9833 54.8638 39.4725 54.3624 39.1586 53.6814C38.5376 52.3337 39.1574 50.6696 40.5123 50.0474C40.9563 49.8435 41.0364 49.8386 44.6943 49.7945C47.41 49.7617 48.4752 49.7193 48.6139 49.6387C48.9425 49.4477 49.0012 49.0608 48.9917 47.1461C48.983 45.3457 48.9629 45.1393 48.7628 44.7949C48.6614 44.6203 48.5398 44.6133 44.8539 44.5697L41.0496 44.5246L40.4485 44.2243C40.0205 44.0104 39.7485 43.7969 39.5035 43.4823C39.0584 42.9111 38.9266 42.5087 38.9284 41.7267C38.9308 40.6077 39.481 39.7779 40.5614 39.2638L41.0538 39.0295L44.8274 38.9845C46.9029 38.9597 48.6495 38.9076 48.7088 38.8686C48.768 38.8296 48.8577 38.6472 48.908 38.4633C49.0307 38.015 49.0306 31.756 48.9079 31.3077C48.7904 30.8783 48.4227 30.4359 48.0531 30.2792C47.8114 30.1767 44.5772 30.1562 28.5594 30.156C9.52258 30.1557 9.35299 30.1541 9.06469 29.9758C8.90477 29.8769 8.73136 29.6845 8.67942 29.5483C8.61523 29.3799 8.59809 27.8866 8.62597 24.8865C8.66903 20.2447 8.6994 19.8404 9.14007 18.0401C10.6401 11.9118 15.9126 7.06043 22.0526 6.15906C23.6259 5.92808 24.9545 5.89592 26.2701 6.05708C29.1321 6.40751 31.6805 7.43581 34.006 9.17847C34.9487 9.88499 36.6686 11.6327 37.2304 12.455C37.7436 13.2062 38.2996 13.8175 38.6298 13.9936C38.8207 14.0955 39.3872 14.1215 41.4086 14.1215H43.9476L44.1761 13.8897C44.4723 13.5892 44.4268 13.2731 43.9392 12.242C42.043 8.23268 38.7183 4.78429 34.5721 2.52645C33.5389 1.96379 33.3428 1.87605 31.864 1.31474C29.0536 0.248062 25.679 -0.196588 22.4965 0.0805077ZM25.3845 40.3401C27.3118 40.5818 28.7896 41.3436 30.1499 42.7965C30.9372 43.6373 31.4879 44.5758 31.8662 45.721C32.1131 46.4685 32.1617 46.7617 32.1984 47.7264C32.2511 49.1128 32.1254 49.9383 31.7364 50.7583C31.3453 51.5826 30.8444 52.2018 30.0684 52.8198C29.2076 53.5055 28.6851 54.0151 28.5058 54.3437C28.3837 54.5675 28.3506 54.9933 28.3131 56.821L28.2679 59.028L27.993 59.6136C27.2455 61.2048 25.6258 62.1043 23.9424 61.8629C22.7977 61.6987 21.61 60.8578 21.1054 59.8542C20.7299 59.1073 20.6783 58.7427 20.6768 56.821C20.676 55.8053 20.6334 54.8211 20.5822 54.634C20.4592 54.1848 20.0953 53.777 19.0974 52.9705C17.8247 51.9417 17.1555 50.9516 16.8972 49.7154C16.7379 48.9526 16.7369 47.3077 16.8954 46.5493C17.5771 43.2872 20.2509 40.7683 23.4776 40.3487C24.353 40.2349 24.5394 40.234 25.3845 40.3401Z" fill="white"/>
</svg>
