<svg width="56" height="73" viewBox="0 0 56 73" fill="none" xmlns="http://www.w3.org/2000/svg">
<path fill-rule="evenodd" clip-rule="evenodd" d="M43.1649 2.03597L41.6612 3.57194L44.7816 6.98201L47.9019 10.3921L38.3174 10.4878L28.7325 10.5838V12.7302V14.877L38.3902 14.9727L48.0479 15.0683L44.8171 18.6133L41.5862 22.1579L42.6041 23.2306C44.6248 25.3594 44.3542 25.5104 50.2508 18.964C53.2248 15.6619 55.6139 12.8385 55.5598 12.6896C55.4747 12.4543 44.8393 0.5 44.7152 0.5C44.6893 0.5 43.9919 1.19101 43.1649 2.03597ZM0.0297791 15.7475V18.8453H5.78825C13.9628 18.8453 14.7399 19.3903 14.7399 25.1223C14.7399 27.014 14.8838 28.1978 15.1134 28.1978C15.319 28.1978 16.691 27.4288 18.1623 26.4892C20.784 24.8151 20.8378 24.7507 20.8385 23.2932C20.8403 19.4022 18.2129 15.3601 14.6606 13.7885C12.9668 13.0392 12.0935 12.9349 6.39819 12.8004L0.0297791 12.65V15.7475ZM20.5421 27.0335C14.3592 30.9471 14.0223 31.2453 14.0223 32.804C14.0223 34.4968 15.1844 35.7554 16.7362 35.7442C17.3655 35.7396 18.7884 35.0878 20.2709 34.1248C21.6354 33.2388 22.8054 32.5673 22.871 32.6331C22.9367 32.6989 23.2972 33.9536 23.6722 35.4212C24.9882 40.5709 27.2898 44.6493 29.8321 46.336C31.8671 47.6863 35.2397 48.7014 37.6906 48.7014C39.5824 48.7014 39.8547 48.7881 39.8547 49.3892C39.8547 50.9993 34.2531 50.5874 30.5318 48.7043C29.422 48.1424 27.8211 47.1029 26.9748 46.3935C26.128 45.6845 25.3699 45.1043 25.2899 45.1043C25.2099 45.1043 25.1446 47.937 25.1446 51.3993V57.6942H29.4324C35.4317 57.6942 37.1334 57.2705 39.1225 55.2813L40.7226 53.6813L47.4416 53.7219C51.1367 53.7442 54.5742 53.6586 55.0801 53.5313L56 53.2996V44.8856V36.4712H48.4864H40.9731L37.49 32.5324C35.5748 30.3658 33.749 28.4914 33.4329 28.3662C30.2953 27.1255 25.4952 25.3734 24.7424 25.1942C23.9979 25.0165 23.1222 25.4004 20.5421 27.0335ZM10.5213 37.3511C9.42165 37.8464 8.64058 39.0709 8.64058 40.2993C8.64058 40.5986 9.11238 41.3162 9.68931 41.8946L10.738 42.946H16.3433C21.8158 42.946 21.969 42.9252 22.8287 42.0629C24.0371 40.8518 24.0177 39.0457 22.7842 37.8827C21.9062 37.0554 21.5984 37.0061 16.7746 36.9176C12.9219 36.8471 11.4072 36.9522 10.5213 37.3511ZM8.69763 44.9608C8.24664 45.2773 7.73286 45.9191 7.55562 46.386C7.15235 47.4496 7.75116 49.3032 8.65458 49.7881C9.01551 49.9816 12.1997 50.1403 15.7301 50.1403C21.9762 50.1403 22.1703 50.118 22.9295 49.3079C23.999 48.1662 23.9549 46.3968 22.8287 45.268C21.9615 44.3982 21.8535 44.3849 15.733 44.3849C10.615 44.3849 9.37322 44.4867 8.69763 44.9608ZM12.6148 52.5104C11.086 53.8 11.086 55.4734 12.6148 56.7629C13.6485 57.6352 13.957 57.6942 17.476 57.6942C22.4272 57.6942 23.7095 57.0655 23.7095 54.6367C23.7095 52.2079 22.4272 51.5791 17.476 51.5791C13.957 51.5791 13.6485 51.6381 12.6148 52.5104ZM14.9792 59.373C14.8475 59.5047 14.7399 60.5543 14.7399 61.7054C14.7399 63.5086 14.5953 63.9604 13.694 64.9727L12.6482 66.1475L6.42868 66.3273L0.209171 66.5072L0.104406 69.5036L0 72.5L6.56251 72.3813C12.5208 72.2734 13.2775 72.1874 14.7758 71.4471C18.548 69.5838 20.4973 66.4845 20.7667 61.9209L20.9314 59.1331H18.0748C16.5037 59.1331 15.1105 59.241 14.9792 59.373Z" fill="white"/>
</svg>
