<svg width="101" height="101" viewBox="0 0 101 101" fill="none" xmlns="http://www.w3.org/2000/svg">
<path fill-rule="evenodd" clip-rule="evenodd" d="M4 2.883C4 4.942 3.418 5.919 1.965 6.299C0.0539999 6.799 -0.0520001 7.488 0.215 17.665L0.5 28.5H9.5H18.5V17.5C18.5 7.138 18.38 6.483 16.43 6.204C14.75 5.964 14.442 5.351 14.793 2.954L15.227 0H9.613C4.093 0 4 0.0479999 4 2.883ZM71.501 3.999C68.698 6.87 67.902 8.302 68.681 9.081C69.459 9.859 70.345 9.801 71.826 8.876C73.583 7.78 74.196 7.867 75.965 9.468L78.041 11.347L75.521 13.978C74.134 15.425 73 17.147 73 17.805C73 19.352 75.257 19.343 76.811 17.789C77.758 16.842 79.429 17.974 84.5 23C89.574 28.029 91.242 29.158 92.191 28.209C93.14 27.26 94.111 27.684 96.669 30.164C99.512 32.919 100.022 33.106 100.598 31.605C101.036 30.465 100.341 28.921 98.548 27.05C96.659 25.078 96.195 23.998 97.019 23.488C97.802 23.004 96.062 20.598 91.868 16.367C86.047 10.494 85.641 9.805 86.849 7.87C87.787 6.368 87.856 5.456 87.089 4.689C86.321 3.921 85.205 4.388 83.191 6.317L80.368 9.021L78.151 6.661C76.193 4.576 76.111 4.152 77.456 3.037C79.098 1.674 78.65 0 76.644 0C75.963 0 73.649 1.799 71.501 3.999ZM47 3.063C47 4.788 47.532 5.075 50.242 4.813C52.377 4.607 53.597 3.903 53.815 2.75C54.081 1.348 53.436 1 50.573 1C47.63 1 47 1.364 47 3.063ZM60 3.824C60 6.23 64.873 7.823 66.11 5.822C66.95 4.462 66.08 3.725 62.25 2.554C60.448 2.002 60 2.255 60 3.824ZM35.008 3.974C33.926 4.658 33.818 5.218 34.614 6.014C36.053 7.453 41 6.196 41 4.392C41 2.808 37.264 2.548 35.008 3.974ZM24.157 8.717C22.714 9.917 22.296 10.943 22.88 11.855C23.595 12.971 24.219 12.903 26.411 11.466C29.014 9.761 29.411 7.97 27.339 7.28C26.769 7.09 25.337 7.737 24.157 8.717ZM39.882 19.381C31.609 22.337 25.162 28.033 20.756 36.278C18.847 39.852 18.5 42.036 18.5 50.5C18.5 59.694 18.737 60.927 21.438 65.804C24.775 71.827 29.933 76.858 36.205 80.207C39.861 82.159 41.989 82.5 50.5 82.5C59.011 82.5 61.139 82.159 64.795 80.207C71.067 76.858 76.225 71.827 79.562 65.804C82.263 60.927 82.5 59.694 82.5 50.5C82.5 41.989 82.159 39.861 80.207 36.205C76.626 29.499 71.375 24.343 64.757 21.036C59.55 18.434 57.595 18.006 51.09 18.044C46.916 18.068 41.872 18.67 39.882 19.381ZM55 40V46H61H67V50.5V55H61H55V61V67H50.5H46V61V55H40H34V50.5V46H40H46V40V34H50.5H55V40ZM2.496 40.019C1.711 43.59 2.228 44.51 4.524 43.629C5.578 43.225 6.024 42.086 5.817 40.333C5.366 36.518 3.307 36.324 2.496 40.019ZM95.465 38.057C94.423 39.743 95.895 44 97.519 44C99.042 44 99.466 41.377 98.393 38.582C97.693 36.759 96.409 36.528 95.465 38.057ZM1.561 50.901C0.55 52.538 2.094 57 3.672 57C4.705 57 5.036 56.081 4.813 53.827C4.498 50.634 2.717 49.031 1.561 50.901ZM96.667 50.667C96.3 51.033 96 52.641 96 54.24C96 58.517 99.389 57.629 99.813 53.242C100.112 50.148 98.503 48.831 96.667 50.667ZM3.748 63.585C2.962 64.371 4.972 70 6.039 70C7.514 70 8.081 68.172 7.422 65.546C6.825 63.168 5.091 62.242 3.748 63.585ZM93.958 65.078C92.786 67.268 93.293 70 94.871 70C96.002 70 98.076 64.41 97.252 63.585C96.164 62.497 95.075 62.991 93.958 65.078ZM2.174 78.314C0.806 79.771 0 81.913 0 84.091C0 87.039 1.007 88.553 6.775 94.277C12.702 100.159 14.016 101 17.275 101C22.227 101 25 98.208 25 93.223C25 89.887 24.209 88.661 18.225 82.723C12.417 76.96 10.943 76 7.899 76C5.481 76 3.655 76.738 2.174 78.314ZM85 79.752C79.955 82.272 77.361 87.923 78.896 93.047C80.325 97.815 84.553 101 89.454 101C96.758 101 101 96.745 101 89.418C101 84.929 98.449 81.086 94.328 79.364C90.124 77.607 89.217 77.645 85 79.752ZM28.564 92.693C27.764 94.778 27.707 94.702 30.915 95.821C35.786 97.519 36.895 94.154 32.064 92.33C29.68 91.43 29.023 91.498 28.564 92.693ZM68.75 92.388C66.162 93.327 65.264 94.93 66.585 96.252C67.289 96.956 73.006 95.08 72.985 94.152C72.937 92.119 71.333 91.451 68.75 92.388ZM41 96.78C41 98.23 41.817 98.893 44 99.213C46.399 99.565 47 99.288 47 97.827C47 96.822 46.362 96 45.582 96C44.802 96 43.452 95.727 42.582 95.393C41.465 94.965 41 95.373 41 96.78ZM54 98.107C54 99.617 54.448 100.042 55.582 99.607C56.452 99.273 57.802 99 58.582 99C59.362 99 60 98.325 60 97.5C60 96.5 59 96 57 96C54.616 96 54 96.433 54 98.107Z" fill="#156082"/>
</svg>
